# xmcd
#
# Track frame offsets:
#	150
#	30311
#	56014
#	67539
#	102408
#	115437
#	147325
#
# Disc length: 2392 seconds
#
# Revision: 1
# Processed by: cddbd v1.5.2PL0 Copyright (c) Steve Scherf et al.
# Submitted via: audiograbber 1.83.01
#
DISCID=59095607
DTITLE=Grateful Dead - 70-03-21A Capitol Theatre, Port Chester NY
DYEAR=1900
DGENRE=
TTITLE0="Insult Fest" > Friend Of The Devil
TTITLE1=Deep Elem Blues
TTITLE2=Don't Ease Me In
TTITLE3=Black Peter
TTITLE4=Wake Up Little Susie
TTITLE5=Uncle John's Band
TTITLE6=Katie Mae
EXTD=
EXTT0=
EXTT1=
EXTT2=
EXTT3=
EXTT4=
EXTT5=
EXTT6=
PLAYORDER=
